# AST/ASF file generated using VICON BodyLanguage
# -----------------------------------------------
:version 1.10
:name VICON
:units
  mass 1.0
  length 0.45
  angle deg
:documentation
   .ast/.asf automatically generated from VICON data using
   VICON BodyBuilder and BodyLanguage model FoxedUp or BRILLIANT.MOD
:root
   order TX TY TZ RX RY RZ
   axis XYZ
   position 0 0 0  
   orientation 0 0 0 
:bonedata
  begin
     id 1 
     name lhipjoint
     direction 0.567725 -0.736092 0.368589 
     length 2.42353 
     axis 0 0 0  XYZ
  end
  begin
     id 2 
     name lfemur
     direction 0.34202 -0.939693 0  
     length 7.24894  
     axis 0 0 20  XYZ
    dof rx ry rz
    limits (-160.0 20.0)
           (-70.0 70.0)
           (-60.0 70.0)
  end
  begin
     id 3 
     name ltibia
     direction 0.34202 -0.939693 0   
     length 7.6997   
     axis 0 0 20   XYZ
    dof rx
    limits (-10.0 170.0)
  end
  begin
     id 4 
     name lfoot
     direction 0.100767 -0.276854 0.955614   
     length 2.37556   
     axis -90 7.62852e-016 20   XYZ
    dof rx rz
    limits (-45.0 90.0)
           (-70.0 20.0)
  end
  begin
     id 5 
     name ltoes
     direction 1.53592e-011 -4.21894e-011 1   
     length 1.18363   
     axis -90 7.62852e-016 20   XYZ
    dof rx
    limits (-90.0 20.0)
  end
  begin
     id 6 
     name rhipjoint
     direction -0.556459 -0.742938 0.372017   
     length 2.4012  
     axis 0 0 0  XYZ 
  end
  begin
     id 7 
     name rfemur
     direction -0.34202 -0.939693 0   
     length 7.5119   
     axis 0 0 -20   XYZ
    dof rx ry rz
    limits (-160.0 20.0)
           (-70.0 70.0)
           (-70.0 60.0)
  end
  begin
     id 8 
     name rtibia
     direction -0.34202 -0.939693 0   
     length 7.50155   
     axis 0 0 -20   XYZ
    dof rx
    limits (-10.0 170.0)
 end
 begin
     id 9 
     name rfoot
     direction -0.118427 -0.325376 0.938139   
     length 2.32487  
     axis -90 -7.62852e-016 -20   XYZ
    dof rx rz
    limits (-45.0 90.0)
           (-20.0 70.0)
  end
  begin
     id 10 
     name rtoes
     direction -1.53525e-011 -4.21868e-011 1   
     length 1.15233   
     axis -90 -7.62852e-016 -20   XYZ
    dof rx
    limits (-90.0 20.0)
  end
  begin
     id 11 
     name lowerback
     direction 0.0287568 0.999577 -0.00434502   
     length 2.15243   
     axis 0 0 0   XYZ
    dof rx ry rz
    limits (-20.0 45.0)
           (-30.0 30.0)
           (-30.0 30.0)
  end
  begin
     id 12 
     name upperback
     direction 0.0294009 0.99956 0.00404628   
     length 2.15427   
     axis 0 0 0   XYZ
    dof rx ry rz
    limits (-20.0 45.0)
           (-30.0 30.0)
           (-30.0 30.0)
  end
  begin
     id 13 
     name thorax
     direction 0.0151014 0.999868 0.0059419   
     length 2.14898   
     axis 0 0 0   XYZ
    dof rx ry rz
    limits (-20.0 45.0)
           (-30.0 30.0)
           (-30.0 30.0)
  end
  begin
     id 14 
     name lowerneck
     direction -0.0249197 0.989906 0.139515   
     length 1.6861   
     axis 0 0 0   XYZ
    dof rx ry rz
    limits (-20.0 45.0)
           (-30.0 30.0)
           (-30.0 30.0)
  end
  begin
     id 15 
     name upperneck
     direction 0.0438463 0.988795 -0.142693   
     length 1.71276   
     axis 0 0 0   XYZ
    dof rx ry rz
    limits (-20.0 45.0)
           (-30.0 30.0)
           (-30.0 30.0)
  end
  begin
     id 16
     name head
     direction 0.0148499 0.997845 -0.0639186  
     length 1.7209  
     axis 0 0 0   XYZ
    dof rx ry rz
    limits (-20.0 45.0)
           (-30.0 30.0)
           (-30.0 30.0)
  end
  begin
     id 17 
     name lclavicle
     direction 0.940298 0.323464 -0.105876  
     length 3.9048  
     axis 0 0 0   XYZ
    dof ry rz
    limits (-20.0 10.0)
           (0.0 20.0)
  end
  begin
     id 18 
     name lhumerus
     direction 1 -4.48954e-011 -4.9675e-028   
     length 4.6851   
     axis 180 -30 -90   XYZ
    dof rx ry rz
    limits (-60.0 90.0)
           (-90.0 90.0)
           (-90.0 90.0)
  end
  begin
     id 19
     name lradius
     direction 1 -4.48992e-011 -1.03359e-026   
     length 3.39626   
     axis 180 -30 -90   XYZ
    dof rx
    limits (-10.0 170.0)
  end
  begin
     id 20
     name lwrist
     direction 1 -4.48906e-011 -1.67336e-026   
     length 1.69813   
     axis 9.90442e-015 90 90   XYZ
    dof ry
    limits (-180.0 0.0)
 end
  begin
     id 21 
     name lhand
     direction 1 -4.49006e-011 -3.34673e-026   
     length 0.486078   
     axis 2.1355e-014 90 90   XYZ
    dof rx rz
    limits (-90.0 90.0)
           (-45.0 45.0)
  end
  begin
     id 22 
     name lfingers
     direction 1 -4.48992e-011 -6.69345e-026   
     length 0.391889   
     axis 4.27099e-014 90 90   XYZ
    dof rx
    limits (0.0 90.0)
  end
  begin
     id 23
     name lthumb
     direction 0.707107 -6.34926e-011 0.707107   
     length 0.562676   
     axis -90 45 2.85299e-015   XYZ
    dof rx rz
    limits (-45.0 45.0)
           (-45.0 45.0)
  end
  begin
     id 24 
     name rclavicle
     direction -0.882459 0.414895 -0.221648   
     length 3.44646  
     axis 0 0 0   XYZ 
    dof ry rz
    limits (-10.0 20.0)
           (-20.0 0.0)
  end
  begin
     id 25 
     name rhumerus
     direction -1 -4.48962e-011 -2.37984e-027  
     length 5.55576   
     axis 180 30 90   XYZ
    dof rx ry rz
    limits (-90.0 60.0)
           (-90.0 90.0)
           (-90.0 90.0)
  end
  begin
     id 26 
     name rradius
     direction -1 -4.48982e-011 -6.86791e-027   
     length 3.32774   
     axis 180 30 90   XYZ
    dof rx
    limits (-10.0 170.0)
  end
  begin
     id 27 
     name rwrist
     direction -1 -4.48961e-011 -1.67336e-026   
     length 1.66387   
     axis 9.90442e-015 -90 -90   XYZ
    dof ry
    limits (-180.0 0.0)
  end
  begin
     id 28
     name rhand
     direction -1 -4.4897e-011 -3.34673e-026   
     length 0.507628   
     axis 2.1355e-014 -90 -90   XYZ
    dof rx rz
    limits (-90.0 90.0)
           (-45.0 45.0)
  end
  begin
     id 29
     name rfingers
     direction -1 -4.48854e-011 -6.69345e-026   
     length 0.409263   
     axis 4.27099e-014 -90 -90   XYZ
    dof rx
    limits (0.0 90.0)
  end
  begin
     id 30
     name rthumb
     direction -0.707107 -6.34913e-011 0.707107   
     length 0.587622   
     axis -90 -45 -2.85299e-015   XYZ
    dof rx rz
    limits (-45.0 45.0)
           (-45.0 45.0)
  end
:hierarchy
  begin
    root lhipjoint rhipjoint lowerback
    lhipjoint lfemur
    lfemur ltibia
    ltibia lfoot
    lfoot ltoes
    rhipjoint rfemur
    rfemur rtibia
    rtibia rfoot
    rfoot rtoes
    lowerback upperback
    upperback thorax
    thorax lowerneck lclavicle rclavicle
    lowerneck upperneck
    upperneck head
    lclavicle lhumerus
    lhumerus lradius
    lradius lwrist
    lwrist lhand lthumb
    lhand lfingers
    rclavicle rhumerus
    rhumerus rradius
    rradius rwrist
    rwrist rhand rthumb
    rhand rfingers
  end

#!OML:ASF E:\motion texture\Top Level 1\Subject 1\Session 1\male.ASF
:FULLY-SPECIFIED
:DEGREES
64
root 23.3462 17.8979 6.40256 60.377 -79.2032 -55.6538
lowerback -1.75302 -0.0993872 5.79854
upperback -2.22445 -0.268719 4.58686
thorax -1.31007 -0.237848 1.47412
lowerneck -12.1818 -5.10386 -7.31711
upperneck 11.4131 -5.69441 0.580899
head 5.67714 -3.06358 0.87099
rclavicle -3.37779e-016 -1.70955e-014
rhumerus -33.1829 -13.3982 -73.889
rradius 73.1452
rwrist -16.6202
rhand -18.1967 -41.596
rfingers 7.12502
rthumb 8.08047 -71.4215
lclavicle -3.37779e-016 -1.70955e-014
lhumerus -35.5264 7.30095 85.8313
lradius 69.9702
lwrist 35.2824
lhand -13.5544 43.028
lfingers 7.12502
lthumb 12.5588 72.6305
rfemur -7.56564 3.73293 34.6661
rtibia 15.2051
rfoot -8.73501 -13.2297
rtoes 16.7204
lfemur -26.7554 1.2082 -6.76044
ltibia 62.4994
lfoot -3.84663 -1.21477
ltoes -14.0211
65
root 23.2145 17.8975 6.40229 61.7236 -79.2373 -56.9621
lowerback -1.69866 0.0214528 5.95841
upperback -2.24145 -0.102466 4.52513
thorax -1.35619 -0.158476 1.32284
lowerneck -12.1647 -5.12761 -7.34806
upperneck 11.4733 -5.72275 0.580258
head 5.69542 -3.08006 0.872674
rclavicle -1.19838e-014 1.59028e-014
rhumerus -32.9723 -12.6696 -74.3954
rradius 73.0071
rwrist -16.607
rhand -18.3977 -41.6882
rfingers 7.12502
rthumb 7.88652 -71.5211
lclavicle -1.19838e-014 1.59028e-014
lhumerus -35.9928 7.43312 85.6392
lradius 70.3714
lwrist 34.917
lhand -13.593 42.9838
lfingers 7.12502
lthumb 12.5216 72.5886
rfemur -6.94024 3.85242 34.8878
rtibia 14.8903
rfoot -8.97328 -13.1643
rtoes 16.6146
lfemur -27.6938 1.42025 -6.70395
ltibia 61.8512
lfoot -4.64059 -0.777844
ltoes -14.2869
66
root 23.084 17.8958 6.40289 63.1529 -79.283 -58.3361
lowerback -1.64703 0.145289 6.11908
upperback -2.26584 0.068285 4.45377
thorax -1.40709 -0.0772001 1.16104
lowerneck -12.1276 -5.14135 -7.36596
upperneck 11.5074 -5.74101 0.575545
head 5.7012 -3.09099 0.872784
rclavicle 8.00186e-015 -1.66979e-014
rhumerus -32.7462 -11.8975 -74.9115
rradius 72.8703
rwrist -16.5755
rhand -18.5706 -41.7613
rfingers 7.12502
rthumb 7.71966 -71.6004
lclavicle 8.00186e-015 -1.66979e-014
lhumerus -36.4338 7.55191 85.4396
lradius 70.7384
lwrist 34.5376
lhand -13.6422 42.9532
lfingers 7.12502
lthumb 12.4741 72.5609
rfemur -6.35023 4.0103 35.1005
rtibia 14.5984
rfoot -9.19774 -13.1311
rtoes 16.4213
lfemur -28.5908 1.63827 -6.66133
ltibia 61.0486
lfoot -5.37671 -0.348613
ltoes -14.5705
67
root 22.9546 17.893 6.40473 64.7556 -79.3397 -59.8628
lowerback -1.62954 0.279754 6.28709
upperback -2.27518 0.248928 4.37823
thorax -1.4216 0.00969501 0.990647
lowerneck -12.0952 -5.15039 -7.38021
upperneck 11.5049 -5.75328 0.573773
head 5.69588 -3.09781 0.874153
rclavicle 7.48277e-015 1.27222e-014
rhumerus -32.4653 -11.1046 -75.4334
rradius 72.7256
rwrist -16.5008
rhand -18.6747 -41.783
rfingers 7.12502
rthumb 7.61913 -71.6257
lclavicle 7.48277e-015 1.27222e-014
lhumerus -36.8139 7.65652 85.2498
lradius 71.0705
lwrist 34.137
lhand -13.6946 42.9135
lfingers 7.12502
lthumb 12.4236 72.5243
rfemur -5.80482 4.18849 35.3053
rtibia 14.3455
rfoot -9.42615 -13.0911
rtoes 16.1926
lfemur -29.4475 1.86993 -6.62581
ltibia 60.0938
lfoot -6.05095 0.0753743
ltoes -14.8284
68
root 22.8261 17.8892 6.40753 66.4269 -79.4015 -61.4421
lowerback -1.62792 0.415788 6.45355
upperback -2.27931 0.429837 4.29822
thorax -1.42028 0.0971174 0.816591
lowerneck -12.0601 -5.15197 -7.39838
upperneck 11.4689 -5.75627 0.583042
head 5.6796 -3.09879 0.880955
rclavicle 8.59258e-015 5.08889e-014
rhumerus -32.1489 -10.2896 -75.9558
rradius 72.5707
rwrist -16.3832
rhand -18.7023 -41.721
rfingers 7.12502
rthumb 7.59253 -71.5647
lclavicle 8.59258e-015 5.08889e-014
lhumerus -37.1424 7.75498 85.0679
lradius 71.3621
lwrist 33.7189
lhand -13.7706 42.8988
lfingers 7.12502
lthumb 12.3502 72.514
rfemur -5.29781 4.36481 35.4926
rtibia 14.1318
rfoot -9.66272 -13.0405
rtoes 15.9273
lfemur -30.2547 2.09595 -6.59959
ltibia 58.9825
lfoot -6.65782 0.482624
ltoes -15.017
69
root 22.6982 17.8847 6.41129 68.1187 -79.4689 -63.0254
lowerback -1.63389 0.550008 6.61395
upperback -2.28734 0.607989 4.21041
thorax -1.4173 0.183232 0.638032
lowerneck -12.0142 -5.1454 -7.41171
upperneck 11.4085 -5.75035 0.595265
head 5.6534 -3.09458 0.889316
rclavicle 4.72075e-015 -1.11319e-013
rhumerus -31.8155 -9.45516 -76.4785
rradius 72.4044
rwrist -16.2121
rhand -18.6841 -41.6147
rfingers 7.12502
rthumb 7.6101 -71.4577
lclavicle 4.72075e-015 -1.11319e-013
lhumerus -37.4364 7.83963 84.8912
lradius 71.611
lwrist 33.2843
lhand -13.8897 42.9283
lfingers 7.12502
lthumb 12.2355 72.5504
rfemur -4.84051 4.50092 35.6483
rtibia 13.9726
rfoot -9.91798 -12.9477
rtoes 15.6326
lfemur -31.0105 2.29912 -6.58801
ltibia 57.7103
lfoot -7.18069 0.874837
ltoes -15.1552
70
root 22.5711 17.8794 6.41567 69.7882 -79.5302 -64.5707
lowerback -1.65342 0.679848 6.7699
upperback -2.29406 0.778916 4.1178
thorax -1.40413 0.266074 0.457235
lowerneck -11.9645 -5.13231 -7.42288
upperneck 11.3219 -5.73766 0.61865
head 5.61823 -3.08561 0.901886
rclavicle -7.32708e-015 2.18663e-014
rhumerus -31.4583 -8.61463 -76.9969
rradius 72.2189
rwrist -15.9849
rhand -18.5998 -41.4296
rfingers 7.12502
rthumb 7.69139 -71.2697
lclavicle -7.32708e-015 2.18663e-014
lhumerus -37.6828 7.91369 84.7235
lradius 71.8147
lwrist 32.8286
lhand -14.0438 43.0104
lfingers 7.12502
lthumb 12.0869 72.6413
rfemur -4.42443 4.60719 35.7828
rtibia 13.8516
rfoot -10.184 -12.8345
rtoes 15.3106
lfemur -31.7125 2.46658 -6.5765
ltibia 56.2787
lfoot -7.61286 1.25175
ltoes -15.2564
71
root 22.4448 17.8736 6.42024 71.3956 -79.5821 -66.0455
lowerback -1.65009 0.80152 6.91367
upperback -2.32109 0.942688 4.02523
thorax -1.42391 0.344331 0.283136
lowerneck -11.8872 -5.11244 -7.43507
upperneck 11.2284 -5.71861 0.64543
head 5.57621 -3.07341 0.916992
rclavicle 4.91681e-015 -2.98177e-014
rhumerus -31.1156 -7.75426 -77.5031
rradius 72.0175
rwrist -15.7419
rhand -18.5589 -41.2464
rfingers 7.12502
rthumb 7.73087 -71.0851
lclavicle 4.91681e-015 -2.98177e-014
lhumerus -37.9303 7.97184 84.5644
lradius 71.9865
lwrist 32.3539
lhand -14.2449 43.1548
lfingers 7.12502
lthumb 11.893 72.7971
rfemur -4.04541 4.67814 35.8987
rtibia 13.7735
rfoot -10.4626 -12.7026
rtoes 14.9636
lfemur -32.3522 2.58568 -6.55891
ltibia 54.6916
lfoot -7.96935 1.60922
ltoes -15.3662
72
root 22.3187 17.8672 6.42468 72.831 -79.6201 -67.3404
lowerback -1.64173 0.906086 7.04014
upperback -2.35718 1.08497 3.93418
thorax -1.45598 0.411596 0.120008
lowerneck -11.805 -5.08592 -7.45295
upperneck 11.1351 -5.69104 0.67949
head 5.53351 -3.05682 0.936119
rclavicle -5.56131e-015 -1.98785e-016
rhumerus -30.7747 -6.8687 -78.0018
rradius 71.8008
rwrist -15.5089
rhand -18.5574 -41.0647
rfingers 7.12502
rthumb 7.73232 -70.9033
lclavicle -5.56131e-015 -1.98785e-016
lhumerus -38.1625 8.02415 84.4132
lradius 72.1211
lwrist 31.8543
lhand -14.4707 43.338
lfingers 7.12502
lthumb 11.6752 72.9927
rfemur -3.69834 4.7066 35.9964
rtibia 13.7306
rfoot -10.7512 -12.5666
rtoes 14.5947
lfemur -32.9273 2.6355 -6.53284
ltibia 52.9466
lfoot -8.2479 1.94397
ltoes -15.4652
73
root 22.1927 17.8601 6.42872 74.1756 -79.6447 -68.5397
lowerback -1.63386 1.00123 7.14815
upperback -2.3929 1.2147 3.8509
thorax -1.4875 0.472831 -0.0249908
lowerneck -11.7426 -5.05872 -7.47375
upperneck 11.052 -5.65982 0.710071
head 5.49715 -3.03893 0.954286
rclavicle 1.51604e-014 6.79844e-014
rhumerus -30.42 -5.9699 -78.4825
rradius 71.5609
rwrist -15.2865
rhand -18.5541 -40.8626
rfingers 7.12502
rthumb 7.73554 -70.7011
lclavicle 1.51604e-014 6.79844e-014
lhumerus -38.3631 8.07708 84.2803
lradius 72.2177
lwrist 31.3223
lhand -14.695 43.5294
lfingers 7.12502
lthumb 11.4589 73.1962
rfemur -3.36875 4.72183 36.0912
rtibia 13.7074
rfoot -11.0374 -12.4412
rtoes 14.1979
lfemur -33.4261 2.63042 -6.48543
ltibia 51.0396
lfoot -8.44349 2.25876
ltoes -15.5633
